<svg xmlns="http://www.w3.org/2000/svg" width="48" height="48" viewBox="0 0 48 48">
    <g fill="#000" fill-rule="nonzero" opacity=".203">
        <path d="M39.429 4.286H7.714V2.143C7.714.959 8.602 0 9.696 0h27.75c1.095 0 1.983.96 1.983 2.143v2.143zM46 7.714H2c-1.105 0-2 .902-2 2.015v36.257C0 47.098.895 48 2 48h44c1.105 0 2-.902 2-2.014V9.729a2.007 2.007 0 0 0-2-2.015zm-32 8.057c2.21 0 4 1.804 4 4.029 0 2.225-1.79 4.029-4 4.029s-4-1.804-4-4.029c0-2.225 1.79-4.029 4-4.029zM10 37.93L30 19.8l10 18.129H10z"/>
    </g>
</svg>
